<svg width="102" height="21" viewBox="0 0 102 21" fill="none" xmlns="http://www.w3.org/2000/svg">
<path d="M9.66673 1.25589C10.0623 0.65971 10.9377 0.65971 11.3333 1.25589L13.9353 5.17765C14.0682 5.37792 14.2688 5.52363 14.5003 5.58812L19.0342 6.85093C19.7234 7.0429 19.9939 7.87547 19.5492 8.4359L16.6234 12.1225C16.474 12.3107 16.3974 12.5465 16.4076 12.7866L16.6077 17.4889C16.6381 18.2037 15.9299 18.7182 15.2594 18.4684L10.8492 16.8251C10.624 16.7412 10.376 16.7412 10.1508 16.8251L5.74058 18.4684C5.07014 18.7182 4.36191 18.2037 4.39232 17.4889L4.59237 12.7866C4.60258 12.5465 4.52598 12.3107 4.37657 12.1225L1.45083 8.4359C1.00607 7.87547 1.27659 7.04289 1.96582 6.85093L6.49972 5.58812C6.73124 5.52363 6.9318 5.37792 7.06468 5.17765L9.66673 1.25589Z" fill="#A3B0FF"/>
<path d="M29.6159 1.25589C30.0115 0.65971 30.8869 0.65971 31.2825 1.25589L33.8845 5.17765C34.0174 5.37792 34.218 5.52363 34.4495 5.58812L38.9834 6.85093C39.6726 7.0429 39.9432 7.87547 39.4984 8.4359L36.5726 12.1225C36.4232 12.3107 36.3466 12.5465 36.3569 12.7866L36.5569 17.4889C36.5873 18.2037 35.8791 18.7182 35.2086 18.4684L30.7984 16.8251C30.5732 16.7412 30.3253 16.7412 30.1001 16.8251L25.6898 18.4684C25.0194 18.7182 24.3111 18.2037 24.3415 17.4889L24.5416 12.7866C24.5518 12.5465 24.4752 12.3107 24.3258 12.1225L21.4001 8.4359C20.9553 7.87547 21.2258 7.04289 21.915 6.85093L26.4489 5.58812C26.6805 5.52363 26.881 5.37792 27.0139 5.17765L29.6159 1.25589Z" fill="#A3B0FF"/>
<path d="M50.0703 1.39495C50.4603 0.757261 51.3866 0.757261 51.7765 1.39495L54.2613 5.45788C54.4057 5.69395 54.6414 5.85965 54.9124 5.91554L59.6593 6.8945C60.4248 7.05238 60.7214 7.98806 60.1866 8.5581L57.004 11.9504C56.8049 12.1626 56.7081 12.4509 56.7389 12.7403L57.2249 17.3121C57.3053 18.0686 56.545 18.6343 55.8435 18.3399L51.3104 16.4374C51.0629 16.3335 50.784 16.3335 50.5365 16.4374L46.0034 18.3399C45.3019 18.6343 44.5416 18.0686 44.622 17.3121L45.108 12.7403C45.1388 12.4509 45.042 12.1626 44.8429 11.9504L41.6603 8.5581C41.1255 7.98806 41.4221 7.05238 42.1876 6.8945L46.9344 5.91554C47.2054 5.85965 47.4412 5.69395 47.5856 5.45788L50.0703 1.39495Z" fill="#A3B0FF"/>
<path d="M70.5652 1.25589C70.9607 0.65971 71.8361 0.65971 72.2317 1.25589L74.8338 5.17765C74.9666 5.37792 75.1672 5.52363 75.3987 5.58812L79.9326 6.85093C80.6218 7.0429 80.8924 7.87547 80.4476 8.4359L77.5219 12.1225C77.3725 12.3107 77.2959 12.5465 77.3061 12.7866L77.5061 17.4889C77.5365 18.2037 76.8283 18.7182 76.1579 18.4684L71.7476 16.8251C71.5224 16.7412 71.2745 16.7412 71.0493 16.8251L66.639 18.4684C65.9686 18.7182 65.2603 18.2037 65.2908 17.4889L65.4908 12.7866C65.501 12.5465 65.4244 12.3107 65.275 12.1225L62.3493 8.4359C61.9045 7.87547 62.175 7.04289 62.8643 6.85093L67.3982 5.58812C67.6297 5.52363 67.8302 5.37792 67.9631 5.17765L70.5652 1.25589Z" fill="#A3B0FF"/>
<path d="M90.5144 1.25589C90.9099 0.65971 91.7854 0.65971 92.1809 1.25589L94.783 5.17765C94.9159 5.37792 95.1164 5.52363 95.3479 5.58812L99.8818 6.85093C100.571 7.0429 100.842 7.87547 100.397 8.4359L97.4711 12.1225C97.3217 12.3107 97.2451 12.5465 97.2553 12.7866L97.4553 17.4889C97.4857 18.2037 96.7775 18.7182 96.1071 18.4684L91.6968 16.8251C91.4716 16.7412 91.2237 16.7412 90.9985 16.8251L86.5882 18.4684C85.9178 18.7182 85.2096 18.2037 85.24 17.4889L85.44 12.7866C85.4502 12.5465 85.3736 12.3107 85.2242 12.1225L82.2985 8.4359C81.8537 7.87547 82.1242 7.04289 82.8135 6.85093L87.3474 5.58812C87.5789 5.52363 87.7795 5.37792 87.9123 5.17765L90.5144 1.25589Z" fill="#A3B0FF"/>
</svg>
